<mxfile host="65bd71144e" pages="2">
    <diagram name="Page-1" id="rCyAOGevqVK6DVIIFY3F">
        <mxGraphModel dx="1086" dy="513" grid="1" gridSize="10" guides="1" tooltips="1" connect="1" arrows="1" fold="1" page="1" pageScale="1" pageWidth="850" pageHeight="1100" math="0" shadow="0">
            <root>
                <mxCell id="0"/>
                <mxCell id="1" parent="0"/>
                <mxCell id="23" value="ora" style="whiteSpace=wrap;html=1;align=center;" vertex="1" parent="1">
                    <mxGeometry x="480" y="250" width="120" height="40" as="geometry"/>
                </mxCell>
                <mxCell id="24" value="BQLOTW_orarend" style="whiteSpace=wrap;html=1;align=center;" vertex="1" parent="1">
                    <mxGeometry x="280" y="250" width="120" height="40" as="geometry"/>
                </mxCell>
                <mxCell id="25" value="" style="fontSize=12;html=1;endArrow=doubleBlock;rounded=0;endFill=1;startArrow=block;startFill=1;exitX=1;exitY=0.5;exitDx=0;exitDy=0;entryX=0;entryY=0.5;entryDx=0;entryDy=0;" edge="1" parent="1" source="24" target="23">
                    <mxGeometry width="100" height="100" relative="1" as="geometry">
                        <mxPoint x="400" y="320" as="sourcePoint"/>
                        <mxPoint x="500" y="220" as="targetPoint"/>
                    </mxGeometry>
                </mxCell>
                <mxCell id="26" value="id" style="ellipse;whiteSpace=wrap;html=1;align=center;fontStyle=4;" vertex="1" parent="1">
                    <mxGeometry x="70" y="410" width="100" height="40" as="geometry"/>
                </mxCell>
                <mxCell id="27" value="tipus" style="ellipse;whiteSpace=wrap;html=1;align=center;" vertex="1" parent="1">
                    <mxGeometry x="190" y="410" width="100" height="40" as="geometry"/>
                </mxCell>
                <mxCell id="28" value="idopont" style="ellipse;whiteSpace=wrap;html=1;align=center;" vertex="1" parent="1">
                    <mxGeometry x="310" y="410" width="100" height="40" as="geometry"/>
                </mxCell>
                <mxCell id="29" value="nap&lt;span style=&quot;color: rgba(0, 0, 0, 0); font-family: monospace; font-size: 0px; text-align: start; text-wrap-mode: nowrap;&quot;&gt;%3CmxGraphModel%3E%3Croot%3E%3CmxCell%20id%3D%220%22%2F%3E%3CmxCell%20id%3D%221%22%20parent%3D%220%22%2F%3E%3CmxCell%20id%3D%222%22%20value%3D%22t%C3%ADpus%22%20style%3D%22ellipse%3BwhiteSpace%3Dwrap%3Bhtml%3D1%3Balign%3Dcenter%3B%22%20vertex%3D%221%22%20parent%3D%221%22%3E%3CmxGeometry%20x%3D%22410%22%20y%3D%22480%22%20width%3D%22100%22%20height%3D%2240%22%20as%3D%22geometry%22%2F%3E%3C%2FmxCell%3E%3C%2Froot%3E%3C%2FmxGraphModel%3E&lt;/span&gt;" style="ellipse;whiteSpace=wrap;html=1;align=center;fontStyle=0;" vertex="1" parent="1">
                    <mxGeometry x="190" y="490" width="100" height="40" as="geometry"/>
                </mxCell>
                <mxCell id="30" value="tol" style="ellipse;whiteSpace=wrap;html=1;align=center;fontStyle=0;" vertex="1" parent="1">
                    <mxGeometry x="310" y="490" width="100" height="40" as="geometry"/>
                </mxCell>
                <mxCell id="31" value="ig" style="ellipse;whiteSpace=wrap;html=1;align=center;fontStyle=0;" vertex="1" parent="1">
                    <mxGeometry x="430" y="490" width="100" height="40" as="geometry"/>
                </mxCell>
                <mxCell id="32" value="helyszin" style="ellipse;whiteSpace=wrap;html=1;align=center;fontStyle=0;" vertex="1" parent="1">
                    <mxGeometry x="430" y="410" width="100" height="40" as="geometry"/>
                </mxCell>
                <mxCell id="33" value="nap&lt;span style=&quot;color: rgba(0, 0, 0, 0); font-family: monospace; font-size: 0px; text-align: start; text-wrap-mode: nowrap;&quot;&gt;%3CmxGraphModel%3E%3Croot%3E%3CmxCell%20id%3D%220%22%2F%3E%3CmxCell%20id%3D%221%22%20parent%3D%220%22%2F%3E%3CmxCell%20id%3D%222%22%20value%3D%22t%C3%ADpus%22%20style%3D%22ellipse%3BwhiteSpace%3Dwrap%3Bhtml%3D1%3Balign%3Dcenter%3B%22%20vertex%3D%221%22%20parent%3D%221%22%3E%3CmxGeometry%20x%3D%22410%22%20y%3D%22480%22%20width%3D%22100%22%20height%3D%2240%22%20as%3D%22geometry%22%2F%3E%3C%2FmxCell%3E%3C%2Froot%3E%3C%2FmxGraphModel%3E&lt;/span&gt;" style="ellipse;whiteSpace=wrap;html=1;align=center;fontStyle=0;" vertex="1" parent="1">
                    <mxGeometry x="550" y="410" width="100" height="40" as="geometry"/>
                </mxCell>
                <mxCell id="34" value="oktato" style="ellipse;whiteSpace=wrap;html=1;align=center;fontStyle=0;" vertex="1" parent="1">
                    <mxGeometry x="670" y="410" width="100" height="40" as="geometry"/>
                </mxCell>
                <mxCell id="35" value="" style="endArrow=none;html=1;rounded=0;exitX=0.5;exitY=0;exitDx=0;exitDy=0;entryX=0.5;entryY=1;entryDx=0;entryDy=0;" edge="1" parent="1" source="26" target="23">
                    <mxGeometry relative="1" as="geometry">
                        <mxPoint x="360" y="480" as="sourcePoint"/>
                        <mxPoint x="520" y="480" as="targetPoint"/>
                    </mxGeometry>
                </mxCell>
                <mxCell id="36" value="" style="endArrow=none;html=1;rounded=0;exitX=0.5;exitY=1;exitDx=0;exitDy=0;entryX=0.5;entryY=0;entryDx=0;entryDy=0;" edge="1" parent="1" source="23" target="28">
                    <mxGeometry relative="1" as="geometry">
                        <mxPoint x="360" y="480" as="sourcePoint"/>
                        <mxPoint x="520" y="480" as="targetPoint"/>
                    </mxGeometry>
                </mxCell>
                <mxCell id="37" value="" style="endArrow=none;html=1;rounded=0;entryX=0.5;entryY=1;entryDx=0;entryDy=0;exitX=0.5;exitY=0;exitDx=0;exitDy=0;" edge="1" parent="1" source="27" target="23">
                    <mxGeometry relative="1" as="geometry">
                        <mxPoint x="360" y="480" as="sourcePoint"/>
                        <mxPoint x="520" y="480" as="targetPoint"/>
                    </mxGeometry>
                </mxCell>
                <mxCell id="38" value="" style="endArrow=none;html=1;rounded=0;exitX=0.5;exitY=0;exitDx=0;exitDy=0;" edge="1" parent="1" source="32">
                    <mxGeometry relative="1" as="geometry">
                        <mxPoint x="360" y="480" as="sourcePoint"/>
                        <mxPoint x="540" y="290" as="targetPoint"/>
                    </mxGeometry>
                </mxCell>
                <mxCell id="39" value="" style="endArrow=none;html=1;rounded=0;exitX=0.5;exitY=0;exitDx=0;exitDy=0;" edge="1" parent="1" source="33">
                    <mxGeometry relative="1" as="geometry">
                        <mxPoint x="360" y="480" as="sourcePoint"/>
                        <mxPoint x="540" y="290" as="targetPoint"/>
                    </mxGeometry>
                </mxCell>
                <mxCell id="40" value="" style="endArrow=none;html=1;rounded=0;exitX=0.5;exitY=0;exitDx=0;exitDy=0;" edge="1" parent="1" source="34">
                    <mxGeometry relative="1" as="geometry">
                        <mxPoint x="360" y="480" as="sourcePoint"/>
                        <mxPoint x="540" y="290" as="targetPoint"/>
                    </mxGeometry>
                </mxCell>
                <mxCell id="41" value="" style="endArrow=none;html=1;rounded=0;entryX=0.5;entryY=1;entryDx=0;entryDy=0;exitX=0.5;exitY=0;exitDx=0;exitDy=0;" edge="1" parent="1" source="29" target="28">
                    <mxGeometry relative="1" as="geometry">
                        <mxPoint x="360" y="480" as="sourcePoint"/>
                        <mxPoint x="520" y="480" as="targetPoint"/>
                    </mxGeometry>
                </mxCell>
                <mxCell id="42" value="" style="endArrow=none;html=1;rounded=0;entryX=0.5;entryY=0;entryDx=0;entryDy=0;" edge="1" parent="1" target="30">
                    <mxGeometry relative="1" as="geometry">
                        <mxPoint x="360" y="450" as="sourcePoint"/>
                        <mxPoint x="520" y="480" as="targetPoint"/>
                    </mxGeometry>
                </mxCell>
                <mxCell id="43" value="" style="endArrow=none;html=1;rounded=0;entryX=0.5;entryY=0;entryDx=0;entryDy=0;" edge="1" parent="1" target="31">
                    <mxGeometry relative="1" as="geometry">
                        <mxPoint x="360" y="450" as="sourcePoint"/>
                        <mxPoint x="520" y="480" as="targetPoint"/>
                    </mxGeometry>
                </mxCell>
            </root>
        </mxGraphModel>
    </diagram>
    <diagram id="ekChUCJ_y76ujZF8oGKG" name="Page-2">
        <mxGraphModel dx="703" dy="1227" grid="0" gridSize="10" guides="1" tooltips="1" connect="1" arrows="1" fold="1" page="0" pageScale="1" pageWidth="850" pageHeight="1100" math="0" shadow="0">
            <root>
                <mxCell id="0"/>
                <mxCell id="1" parent="0"/>
                <mxCell id="HF_Tf0KA8rQf1nv-4KL--1" value="ora" style="whiteSpace=wrap;html=1;align=center;" parent="1" vertex="1">
                    <mxGeometry x="760" y="-4" width="120" height="40" as="geometry"/>
                </mxCell>
                <mxCell id="HF_Tf0KA8rQf1nv-4KL--2" value="BQLOTW_orarend" style="whiteSpace=wrap;html=1;align=center;" parent="1" vertex="1">
                    <mxGeometry x="560" y="-4" width="120" height="40" as="geometry"/>
                </mxCell>
                <mxCell id="HF_Tf0KA8rQf1nv-4KL--3" value="" style="fontSize=12;html=1;endArrow=doubleBlock;rounded=0;endFill=1;startArrow=block;startFill=1;exitX=1;exitY=0.5;exitDx=0;exitDy=0;entryX=0;entryY=0.5;entryDx=0;entryDy=0;" parent="1" source="HF_Tf0KA8rQf1nv-4KL--2" target="HF_Tf0KA8rQf1nv-4KL--1" edge="1">
                    <mxGeometry width="100" height="100" relative="1" as="geometry">
                        <mxPoint x="680" y="66" as="sourcePoint"/>
                        <mxPoint x="780" y="-34" as="targetPoint"/>
                    </mxGeometry>
                </mxCell>
                <mxCell id="HF_Tf0KA8rQf1nv-4KL--4" value="id" style="ellipse;whiteSpace=wrap;html=1;align=center;fontStyle=4;" parent="1" vertex="1">
                    <mxGeometry x="350" y="156" width="100" height="40" as="geometry"/>
                </mxCell>
                <mxCell id="HF_Tf0KA8rQf1nv-4KL--5" value="tipus" style="ellipse;whiteSpace=wrap;html=1;align=center;" parent="1" vertex="1">
                    <mxGeometry x="470" y="156" width="100" height="40" as="geometry"/>
                </mxCell>
                <mxCell id="HF_Tf0KA8rQf1nv-4KL--6" value="idopont" style="ellipse;whiteSpace=wrap;html=1;align=center;" parent="1" vertex="1">
                    <mxGeometry x="590" y="156" width="100" height="40" as="geometry"/>
                </mxCell>
                <mxCell id="HF_Tf0KA8rQf1nv-4KL--7" value="nap&lt;span style=&quot;color: rgba(0, 0, 0, 0); font-family: monospace; font-size: 0px; text-align: start; text-wrap-mode: nowrap;&quot;&gt;%3CmxGraphModel%3E%3Croot%3E%3CmxCell%20id%3D%220%22%2F%3E%3CmxCell%20id%3D%221%22%20parent%3D%220%22%2F%3E%3CmxCell%20id%3D%222%22%20value%3D%22t%C3%ADpus%22%20style%3D%22ellipse%3BwhiteSpace%3Dwrap%3Bhtml%3D1%3Balign%3Dcenter%3B%22%20vertex%3D%221%22%20parent%3D%221%22%3E%3CmxGeometry%20x%3D%22410%22%20y%3D%22480%22%20width%3D%22100%22%20height%3D%2240%22%20as%3D%22geometry%22%2F%3E%3C%2FmxCell%3E%3C%2Froot%3E%3C%2FmxGraphModel%3E&lt;/span&gt;" style="ellipse;whiteSpace=wrap;html=1;align=center;fontStyle=0;" parent="1" vertex="1">
                    <mxGeometry x="470" y="236" width="100" height="40" as="geometry"/>
                </mxCell>
                <mxCell id="HF_Tf0KA8rQf1nv-4KL--8" value="tol" style="ellipse;whiteSpace=wrap;html=1;align=center;fontStyle=0;" parent="1" vertex="1">
                    <mxGeometry x="590" y="236" width="100" height="40" as="geometry"/>
                </mxCell>
                <mxCell id="HF_Tf0KA8rQf1nv-4KL--9" value="ig" style="ellipse;whiteSpace=wrap;html=1;align=center;fontStyle=0;" parent="1" vertex="1">
                    <mxGeometry x="710" y="236" width="100" height="40" as="geometry"/>
                </mxCell>
                <mxCell id="HF_Tf0KA8rQf1nv-4KL--10" value="helyszin" style="ellipse;whiteSpace=wrap;html=1;align=center;fontStyle=0;" parent="1" vertex="1">
                    <mxGeometry x="710" y="156" width="100" height="40" as="geometry"/>
                </mxCell>
                <mxCell id="HF_Tf0KA8rQf1nv-4KL--11" value="nap&lt;span style=&quot;color: rgba(0, 0, 0, 0); font-family: monospace; font-size: 0px; text-align: start; text-wrap-mode: nowrap;&quot;&gt;%3CmxGraphModel%3E%3Croot%3E%3CmxCell%20id%3D%220%22%2F%3E%3CmxCell%20id%3D%221%22%20parent%3D%220%22%2F%3E%3CmxCell%20id%3D%222%22%20value%3D%22t%C3%ADpus%22%20style%3D%22ellipse%3BwhiteSpace%3Dwrap%3Bhtml%3D1%3Balign%3Dcenter%3B%22%20vertex%3D%221%22%20parent%3D%221%22%3E%3CmxGeometry%20x%3D%22410%22%20y%3D%22480%22%20width%3D%22100%22%20height%3D%2240%22%20as%3D%22geometry%22%2F%3E%3C%2FmxCell%3E%3C%2Froot%3E%3C%2FmxGraphModel%3E&lt;/span&gt;" style="ellipse;whiteSpace=wrap;html=1;align=center;fontStyle=0;" parent="1" vertex="1">
                    <mxGeometry x="830" y="156" width="100" height="40" as="geometry"/>
                </mxCell>
                <mxCell id="HF_Tf0KA8rQf1nv-4KL--12" value="oktato" style="ellipse;whiteSpace=wrap;html=1;align=center;fontStyle=0;" parent="1" vertex="1">
                    <mxGeometry x="950" y="156" width="100" height="40" as="geometry"/>
                </mxCell>
                <mxCell id="HF_Tf0KA8rQf1nv-4KL--13" value="" style="endArrow=none;html=1;rounded=0;exitX=0.5;exitY=0;exitDx=0;exitDy=0;entryX=0.5;entryY=1;entryDx=0;entryDy=0;" parent="1" source="HF_Tf0KA8rQf1nv-4KL--4" target="HF_Tf0KA8rQf1nv-4KL--1" edge="1">
                    <mxGeometry relative="1" as="geometry">
                        <mxPoint x="640" y="226" as="sourcePoint"/>
                        <mxPoint x="800" y="226" as="targetPoint"/>
                    </mxGeometry>
                </mxCell>
                <mxCell id="HF_Tf0KA8rQf1nv-4KL--14" value="" style="endArrow=none;html=1;rounded=0;exitX=0.5;exitY=1;exitDx=0;exitDy=0;entryX=0.5;entryY=0;entryDx=0;entryDy=0;" parent="1" source="HF_Tf0KA8rQf1nv-4KL--1" target="HF_Tf0KA8rQf1nv-4KL--6" edge="1">
                    <mxGeometry relative="1" as="geometry">
                        <mxPoint x="640" y="226" as="sourcePoint"/>
                        <mxPoint x="800" y="226" as="targetPoint"/>
                    </mxGeometry>
                </mxCell>
                <mxCell id="HF_Tf0KA8rQf1nv-4KL--15" value="" style="endArrow=none;html=1;rounded=0;entryX=0.5;entryY=1;entryDx=0;entryDy=0;exitX=0.5;exitY=0;exitDx=0;exitDy=0;" parent="1" source="HF_Tf0KA8rQf1nv-4KL--5" target="HF_Tf0KA8rQf1nv-4KL--1" edge="1">
                    <mxGeometry relative="1" as="geometry">
                        <mxPoint x="640" y="226" as="sourcePoint"/>
                        <mxPoint x="800" y="226" as="targetPoint"/>
                    </mxGeometry>
                </mxCell>
                <mxCell id="HF_Tf0KA8rQf1nv-4KL--16" value="" style="endArrow=none;html=1;rounded=0;exitX=0.5;exitY=0;exitDx=0;exitDy=0;" parent="1" source="HF_Tf0KA8rQf1nv-4KL--10" edge="1">
                    <mxGeometry relative="1" as="geometry">
                        <mxPoint x="640" y="226" as="sourcePoint"/>
                        <mxPoint x="820" y="36" as="targetPoint"/>
                    </mxGeometry>
                </mxCell>
                <mxCell id="HF_Tf0KA8rQf1nv-4KL--17" value="" style="endArrow=none;html=1;rounded=0;exitX=0.5;exitY=0;exitDx=0;exitDy=0;" parent="1" source="HF_Tf0KA8rQf1nv-4KL--11" edge="1">
                    <mxGeometry relative="1" as="geometry">
                        <mxPoint x="640" y="226" as="sourcePoint"/>
                        <mxPoint x="820" y="36" as="targetPoint"/>
                    </mxGeometry>
                </mxCell>
                <mxCell id="HF_Tf0KA8rQf1nv-4KL--18" value="" style="endArrow=none;html=1;rounded=0;exitX=0.5;exitY=0;exitDx=0;exitDy=0;" parent="1" source="HF_Tf0KA8rQf1nv-4KL--12" edge="1">
                    <mxGeometry relative="1" as="geometry">
                        <mxPoint x="640" y="226" as="sourcePoint"/>
                        <mxPoint x="820" y="36" as="targetPoint"/>
                    </mxGeometry>
                </mxCell>
                <mxCell id="HF_Tf0KA8rQf1nv-4KL--19" value="" style="endArrow=none;html=1;rounded=0;entryX=0.5;entryY=1;entryDx=0;entryDy=0;exitX=0.5;exitY=0;exitDx=0;exitDy=0;" parent="1" source="HF_Tf0KA8rQf1nv-4KL--7" target="HF_Tf0KA8rQf1nv-4KL--6" edge="1">
                    <mxGeometry relative="1" as="geometry">
                        <mxPoint x="640" y="226" as="sourcePoint"/>
                        <mxPoint x="800" y="226" as="targetPoint"/>
                    </mxGeometry>
                </mxCell>
                <mxCell id="HF_Tf0KA8rQf1nv-4KL--20" value="" style="endArrow=none;html=1;rounded=0;entryX=0.5;entryY=0;entryDx=0;entryDy=0;" parent="1" target="HF_Tf0KA8rQf1nv-4KL--8" edge="1">
                    <mxGeometry relative="1" as="geometry">
                        <mxPoint x="640" y="196" as="sourcePoint"/>
                        <mxPoint x="800" y="226" as="targetPoint"/>
                    </mxGeometry>
                </mxCell>
                <mxCell id="HF_Tf0KA8rQf1nv-4KL--21" value="" style="endArrow=none;html=1;rounded=0;entryX=0.5;entryY=0;entryDx=0;entryDy=0;" parent="1" target="HF_Tf0KA8rQf1nv-4KL--9" edge="1">
                    <mxGeometry relative="1" as="geometry">
                        <mxPoint x="640" y="196" as="sourcePoint"/>
                        <mxPoint x="800" y="226" as="targetPoint"/>
                    </mxGeometry>
                </mxCell>
            </root>
        </mxGraphModel>
    </diagram>
</mxfile>